<?xml version="1.0" standalone="no"?>
<!DOCTYPE svg PUBLIC "-//W3C//DTD SVG 20010904//EN"
 "http://www.w3.org/TR/2001/REC-SVG-20010904/DTD/svg10.dtd">
<svg version="1.0" xmlns="http://www.w3.org/2000/svg"
 width="720.000000pt" height="720.000000pt" viewBox="0 0 720.000000 720.000000"
 preserveAspectRatio="xMidYMid meet">
<metadata>
Created by potrace 1.11, written by Peter Selinger 2001-2013
</metadata>
<g transform="translate(0.000000,720.000000) scale(0.100000,-0.100000)"
fill="#000000" stroke="none">
<path d="M2293 7175 c-22 -7 -50 -19 -62 -27 -19 -14 -27 -13 -77 3 -73 24
-149 19 -203 -15 -32 -21 -54 -26 -103 -26 -67 0 -144 -27 -154 -53 -4 -11
-22 -15 -67 -14 -60 0 -91 -3 -152 -18 -31 -8 -91 -48 -111 -74 -7 -9 -34 -15
-78 -17 -159 -8 -237 -116 -185 -259 10 -27 15 -52 10 -55 -20 -13 -43 -77
-43 -121 0 -36 8 -63 31 -105 26 -46 31 -61 23 -82 -17 -50 0 -118 47 -185 34
-48 39 -62 40 -112 0 -65 27 -119 83 -171 25 -24 34 -41 35 -66 2 -66 61 -150
147 -209 22 -15 40 -38 47 -59 26 -82 92 -145 179 -171 34 -10 46 -20 57 -47
25 -59 72 -100 146 -126 37 -13 70 -26 73 -29 3 -3 -23 -22 -57 -43 -192 -116
-343 -269 -432 -434 -38 -71 -82 -188 -90 -237 -3 -18 -8 -36 -11 -41 -2 -4
-8 -31 -12 -58 -3 -27 -8 -58 -10 -69 -3 -11 -7 -69 -10 -128 -7 -133 -23
-166 -115 -236 -60 -45 -189 -178 -198 -204 -2 -6 -12 -20 -23 -31 -49 -53
-143 -270 -173 -400 -27 -118 -37 -297 -20 -371 3 -16 7 -37 7 -45 0 -8 4 -28
9 -45 4 -16 10 -42 13 -56 2 -14 13 -48 24 -75 11 -27 26 -64 33 -83 17 -46
110 -193 159 -251 22 -26 40 -54 40 -62 0 -19 35 -155 50 -193 6 -16 11 -31
11 -32 -1 -5 6 -26 44 -130 36 -103 41 -118 51 -183 7 -41 43 -177 53 -199
127 -278 256 -440 461 -580 50 -35 183 -110 195 -111 18 -2 49 -20 110 -65 83
-62 240 -165 251 -165 4 0 15 -6 23 -14 22 -20 200 -107 295 -145 44 -18 92
-44 106 -59 114 -117 321 -252 445 -292 22 -7 45 -15 50 -19 6 -3 15 -6 20 -7
6 -1 28 -6 50 -12 22 -6 56 -13 75 -16 19 -3 46 -8 60 -11 51 -11 304 -5 366
9 12 2 37 7 56 10 85 13 356 130 366 157 2 5 8 9 14 9 14 0 165 119 207 163
22 23 63 47 115 68 74 30 264 123 311 152 91 57 190 122 204 132 52 43 113 85
121 85 6 0 10 4 10 8 0 5 6 9 14 9 27 0 209 101 265 148 167 139 280 276 358
432 35 70 78 189 88 239 2 11 4 20 5 22 3 3 5 12 14 64 6 38 56 193 89 278 10
26 55 193 62 232 4 20 22 54 39 75 74 86 131 185 197 338 7 18 40 126 39 133
0 1 0 3 1 5 3 10 19 156 21 192 1 19 -12 180 -16 201 -40 202 -125 392 -236
528 -60 73 -205 206 -226 206 -23 1 -55 99 -59 181 -5 115 -27 272 -42 309 -3
8 -8 24 -10 35 -14 74 -92 235 -157 323 -52 70 -142 163 -202 208 -21 16 -47
36 -57 45 -9 9 -30 22 -45 30 -15 8 -29 17 -32 20 -3 3 -25 17 -49 31 l-44 26
59 17 c80 22 134 61 164 119 21 40 60 80 60 62 0 -3 18 3 40 13 71 32 138 107
147 166 2 11 13 28 26 38 12 9 29 23 38 30 47 36 79 67 79 76 0 6 4 11 8 11
13 0 42 71 45 110 2 24 13 46 38 70 56 56 71 88 77 159 4 50 12 76 32 106 59
88 69 120 56 192 -6 34 -4 48 11 70 52 75 57 136 18 213 -23 46 -24 50 -9 85
32 78 11 174 -47 215 -41 30 -105 48 -153 44 -34 -3 -45 1 -70 28 -53 54 -133
80 -250 81 -45 0 -64 5 -79 20 -32 32 -85 48 -148 46 -32 -1 -64 3 -71 9 -8 6
-35 20 -61 31 -53 23 -139 22 -198 -3 -30 -13 -36 -12 -59 4 -60 43 -136 40
-238 -7 -40 -19 -49 -19 -92 -8 -27 7 -51 11 -53 8 -3 -2 -20 -6 -39 -8 -19
-1 -54 -15 -77 -30 -24 -14 -50 -26 -59 -25 -132 8 -171 -4 -253 -80 -47 -43
-57 -48 -108 -52 -47 -3 -65 -10 -101 -39 -93 -73 -197 -200 -250 -305 -14
-27 -27 -51 -30 -54 -3 -3 -16 -32 -28 -65 -13 -33 -28 -68 -33 -77 -5 -10 -9
-27 -9 -38 0 -38 -15 -20 -39 48 -71 206 -209 403 -348 499 -44 30 -61 36 -99
35 -41 -2 -50 2 -83 36 -76 78 -122 98 -220 94 -43 -2 -68 4 -118 29 -63 31
-125 37 -178 18 -13 -4 -41 2 -77 17 -85 36 -128 43 -175 29z"/>
</g>
</svg>
